HIERARCHY
ROOT Hips
{
    OFFSET 0.000000 0.000000 0.000000
    CHANNELS 6 Xposition Yposition Zposition Zrotation Xrotation Yrotation
    JOINT Spine
    {
        OFFSET -0.000000 7.236184 0.000000
        CHANNELS 3 Zrotation Xrotation Yrotation
        JOINT Spine1
        {
            OFFSET -0.000000 20.420147 0.000000
            CHANNELS 3 Zrotation Xrotation Yrotation
            JOINT Neck
            {
                OFFSET -0.000000 20.336288 1.848754
                CHANNELS 3 Zrotation Xrotation Yrotation
                JOINT Head
                {
                    OFFSET -0.000000 12.354461 -1.764923
                    CHANNELS 3 Zrotation Xrotation Yrotation
                    End Site
                    {
                        OFFSET -0.000000 22.061537 0.000000
                    }
                }
            }
            JOINT LeftShoulder
            {
                OFFSET 3.573296 18.396038 -0.314103
                CHANNELS 3 Zrotation Xrotation Yrotation
                JOINT LeftArm
                {
                    OFFSET 10.880760 0.000000 0.000000
                    CHANNELS 3 Zrotation Xrotation Yrotation
                    JOINT LeftForeArm
                    {
                        OFFSET 27.185530 0.000000 0.000000
                        CHANNELS 3 Zrotation Xrotation Yrotation
                        JOINT LeftHand
                        {
                            OFFSET 27.825975 0.000000 0.000000
                            CHANNELS 3 Zrotation Xrotation Yrotation
                            End Site
                            {
                                OFFSET 13.236923 0.000000 0.000000
                            }
                        }
                    }
                }
            }
            JOINT RightShoulder
            {
                OFFSET -3.474926 18.396038 -0.314103
                CHANNELS 3 Zrotation Xrotation Yrotation
                JOINT RightArm
                {
                    OFFSET -10.880760 0.000000 0.000000
                    CHANNELS 3 Zrotation Xrotation Yrotation
                    JOINT RightForeArm
                    {
                        OFFSET -27.185530 0.000000 0.000000
                        CHANNELS 3 Zrotation Xrotation Yrotation
                        JOINT RightHand
                        {
                            OFFSET -27.825975 0.000000 0.000000
                            CHANNELS 3 Zrotation Xrotation Yrotation
                            End Site
                            {
                                OFFSET -13.236923 0.000000 0.000000
                            }
                        }
                    }
                }
            }
        }
    }
    JOINT LeftUpLeg
    {
        OFFSET 8.824615 0.000000 0.000000
        CHANNELS 3 Zrotation Xrotation Yrotation
        JOINT LeftLeg
        {
            OFFSET -0.000000 -35.111282 0.000000
            CHANNELS 3 Zrotation Xrotation Yrotation
            JOINT LeftFoot
            {
                OFFSET -0.000000 -42.324711 0.000000
                CHANNELS 3 Zrotation Xrotation Yrotation
                JOINT LeftToeBase
                {
                    OFFSET -0.000000 -5.735999 13.236923
                    CHANNELS 3 Zrotation Xrotation Yrotation
                    End Site
                    {
                        OFFSET -0.000000 0.000000 3.529846
                    }
                }
            }
        }
    }
    JOINT RightUpLeg
    {
        OFFSET -8.824615 0.000000 0.000000
        CHANNELS 3 Zrotation Xrotation Yrotation
        JOINT RightLeg
        {
            OFFSET -0.000000 -35.111282 0.000000
            CHANNELS 3 Zrotation Xrotation Yrotation
            JOINT RightFoot
            {
                OFFSET -0.000000 -42.324711 0.000000
                CHANNELS 3 Zrotation Xrotation Yrotation
                JOINT RightToeBase
                {
                    OFFSET -0.000000 -5.735999 13.236923
                    CHANNELS 3 Zrotation Xrotation Yrotation
                    End Site
                    {
                        OFFSET -0.000000 0.000000 3.529846
                    }
                }
            }
        }
    }
}
MOTION
Frames:    14
Frame Time:    0.008333
-6.134606    81.710327    102.162132    -0.443085    -10.748951    -176.674179    -1.905495    -12.482747    0.453839    0.147941    4.126504    0.657013    3.541386    -4.783497    -0.540510    0.240184    -14.029418    -1.175680    1.995587    17.801006    -4.104989    -51.656174    44.479698    -33.721844    -1.009264    -7.873049    -14.554719    21.056902    -7.070836    5.043410    5.665008    18.848949    -4.911991    46.822727    44.541332    30.887039    -1.409037    -12.400929    24.477491    -14.892169    -11.256844    -6.597658    1.690700    -10.980291    -3.451733    -1.860603    10.099097    -4.542703    -0.401682    -8.291430    -5.083125    -0.568914    -0.785455    0.631519    -3.949464    -6.124233    3.783659    3.841399    2.545535    3.197918    -0.963032    -4.932984    -12.382029    0.287299    -0.948745    -0.311143
-6.133378    81.732132    102.229561    -0.428418    -10.980088    -176.691467    -1.861058    -12.358997    0.482108    0.094522    4.133945    0.680356    3.531719    -4.794683    -0.532260    0.197879    -14.709690    -1.175553    1.991784    17.789854    -4.098300    -51.812973    44.230728    -33.499107    -0.975021    -7.885998    -14.319243    21.255589    -7.055439    5.113244    5.629039    18.800369    -4.869895    46.921589    44.348450    30.731348    -1.556425    -12.561433    25.285280    -14.996781    -11.342787    -6.803065    1.684815    -11.258438    -3.487310    -1.853665    10.092531    -4.476595    -0.408519    -8.242100    -5.085287    -0.568779    -0.774962    0.631357    -3.949402    -6.393789    3.776282    3.837259    2.513445    3.182642    -0.957311    -4.872525    -12.358893    0.268965    -0.940585    -0.291285
-6.132726    81.753883    102.298927    -0.419154    -11.210634    -176.709839    -1.818536    -12.225905    0.510546    0.035601    4.148538    0.704076    3.523760    -4.793378    -0.525821    0.152414    -15.362802    -1.178488    1.986680    17.778028    -4.093733    -51.949619    43.986385    -33.273750    -0.941137    -7.884024    -14.083314    21.458389    -7.024858    5.182846    5.591007    18.747900    -4.825439    46.996342    44.174927    30.593384    -1.713748    -12.721986    26.150339    -15.101131    -11.422892    -7.010547    1.672600    -11.534031    -3.523451    -1.845203    10.080366    -4.406734    -0.416157    -8.187661    -5.088711    -0.566288    -0.762335    0.628577    -3.956246    -6.663750    3.767175    3.835090    2.481188    3.168547    -0.953186    -4.810515    -12.335419    0.248857    -0.931032    -0.269504
-6.132524    81.775520    102.370239    -0.415061    -11.440300    -176.728989    -1.778771    -12.083546    0.538898    -0.027243    4.170200    0.728246    3.516846    -4.780842    -0.521476    0.104188    -15.983467    -1.184871    1.979972    17.766205    -4.091765    -52.065094    43.748203    -33.047047    -0.907670    -7.868246    -13.848736    21.665476    -6.980408    5.251336    5.551355    18.692259    -4.778969    47.046551    44.020893    30.473671    -1.878765    -12.884292    27.070530    -15.203242    -11.499454    -7.217214    1.654349    -11.807186    -3.560238    -1.835284    10.063152    -4.332699    -0.424642    -8.128256    -5.094223    -0.561490    -0.746979    0.623234    -3.969434    -6.933976    3.755712    3.834564    2.448700    3.154476    -0.950383    -4.746761    -12.309933    0.227492    -0.919563    -0.246362
-6.132576    81.797096    102.443863    -0.415586    -11.670079    -176.748627    -1.742466    -11.931370    0.567214    -0.092132    4.198681    0.752779    3.510624    -4.757773    -0.519487    0.052347    -16.570423    -1.195003    1.971021    17.754286    -4.092693    -52.160645    43.515839    -32.817715    -0.874696    -7.839183    -13.615956    21.878059    -6.922680    5.317925    5.510029    18.634022    -4.730386    47.072430    43.884983    30.371876    -2.049894    -13.049895    28.047522    -15.301666    -11.574283    -7.421185    1.630758    -12.079701    -3.597905    -1.824155    10.041575    -4.253748    -0.434047    -8.063850    -5.102714    -0.554327    -0.728913    0.615263    -3.988382    -7.205541    3.741932    3.835561    2.415936    3.141307    -0.947885    -4.681387    -12.283306    0.205631    -0.906925    -0.222684
-6.132638    81.818596    102.519821    -0.420003    -11.899988    -176.768448    -1.710426    -11.769816    0.595452    -0.156856    4.233575    0.777605    3.504369    -4.725138    -0.520213    -0.002807    -17.119230    -1.209151    1.959396    17.742907    -4.096391    -52.236412    43.290077    -32.587036    -0.842142    -7.797893    -13.386477    22.096273    -6.852894    5.381849    5.467072    18.574127    -4.680515    47.073948    43.766640    30.288862    -2.224780    -13.218756    29.077436    -15.394623    -11.648129    -7.619216    1.602808    -12.352112    -3.636022    -1.811983    10.016344    -4.169424    -0.444553    -7.994741    -5.115814    -0.544990    -0.707754    0.604877    -4.011934    -7.478656    3.725627    3.837579    2.383115    3.128253    -0.944919    -4.614470    -12.254478    0.184003    -0.892327    -0.199258
-6.132449    81.840096    102.598717    -0.427579    -12.131802    -176.788177    -1.683296    -11.598761    0.623651    -0.219573    4.275222    0.802901    3.497693    -4.682967    -0.523942    -0.061758    -17.630445    -1.227633    1.944524    17.731874    -4.103448    -52.294800    43.068962    -32.353260    -0.809933    -7.744734    -13.159729    22.321836    -6.771367    5.442650    5.422404    18.512756    -4.629032    47.051369    43.663998    30.224331    -2.402339    -13.391238    30.162857    -15.481066    -11.721519    -7.809695    1.571337    -12.627269    -3.674375    -1.798963    9.988379    -4.079498    -0.456063    -7.920829    -5.134480    -0.533732    -0.682964    0.592354    -4.039104    -7.755610    3.706561    3.840304    2.350011    3.114648    -0.940840    -4.545433    -12.222478    0.163331    -0.875824    -0.176868
-6.131680    81.861427    102.680206    -0.437113    -12.364598    -176.807373    -1.661618    -11.419744    0.651775    -0.277737    4.323325    0.828467    3.489792    -4.632321    -0.531087    -0.123605    -18.099033    -1.250410    1.926104    17.721354    -4.113634    -52.336899    42.853352    -32.118244    -0.778214    -7.680957    -12.937832    22.553652    -6.679627    5.499610    5.376194    18.450777    -4.577003    47.005203    43.576900    30.179384    -2.580302    -13.565339    31.293432    -15.558786    -11.793633    -7.988807    1.537977    -12.904671    -3.711907    -1.785206    9.958807    -3.984765    -0.468716    -7.842933    -5.159942    -0.520940    -0.654564    0.578128    -4.068099    -8.035406    3.685021    3.842986    2.317302    3.100820    -0.935608    -4.474967    -12.187779    0.144480    -0.856938    -0.156450
-6.130003    81.882759    102.765190    -0.447711    -12.601053    -176.825775    -1.645416    -11.232361    0.680047    -0.330652    4.379135    0.854555    3.481122    -4.573271    -0.541685    -0.189356    -18.527132    -1.278058    1.904054    17.711271    -4.127052    -52.365105    42.640049    -31.880171    -0.746440    -7.606827    -12.718955    22.793898    -6.577750    5.552687    5.328773    18.387783    -4.524032    46.934853    43.503948    30.154276    -2.759444    -13.741514    32.475044    -15.626716    -11.864535    -8.155694    1.503711    -13.188221    -3.748341    -1.770912    9.928302    -3.885362    -0.482334    -7.760550    -5.192728    -0.506784    -0.622033    0.562384    -4.097669    -8.321367    3.660716    3.845049    2.284622    3.085607    -0.928442    -4.402174    -12.148753    0.128027    -0.835632    -0.138630
-6.127062    81.903923    102.853348    -0.458037    -12.840463    -176.842819    -1.634705    -11.038672    0.708405    -0.376685    4.443421    0.881031    3.471469    -4.506779    -0.556015    -0.258108    -18.911276    -1.310496    1.878684    17.701338    -4.143684    -52.381409    42.429234    -31.640533    -0.714399    -7.523923    -12.504494    23.041597    -6.467405    5.601569    5.280451    18.324293    -4.470672    46.840961    43.444733    30.150261    -2.938409    -13.917419    33.697357    -15.683120    -11.932789    -8.307508    1.470368    -13.477457    -3.782483    -1.756313    9.897636    -3.782565    -0.496911    -7.674201    -5.233499    -0.491647    -0.585510    0.545551    -4.125905    -8.612690    3.634267    3.845909    2.252122    3.068823    -0.919617    -4.327250    -12.105739    0.114658    -0.811452    -0.124150
-6.122497    81.924980    102.945114    -0.466903    -13.084254    -176.858047    -1.628965    -10.838939    0.736931    -0.415661    4.517340    0.907936    3.461629    -4.432944    -0.574164    -0.330261    -19.252041    -1.347937    1.850239    17.691275    -4.163205    -52.388130    42.218536    -31.398470    -0.681804    -7.432812    -12.293602    23.297987    -6.349051    5.646572    5.231977    18.259880    -4.416725    46.723228    43.398701    30.167957    -3.118019    -14.092567    34.960350    -15.726879    -11.997648    -8.443329    1.439290    -13.774526    -3.813563    -1.741449    9.867156    -3.677064    -0.512485    -7.583414    -5.282719    -0.475742    -0.544900    0.527863    -4.151165    -8.911049    3.605856    3.844903    2.219671    3.049769    -0.908532    -4.249806    -12.058066    0.104793    -0.784472    -0.113464
-6.116030    81.945847    103.040253    -0.473158    -13.331958    -176.870895    -1.627813    -10.634932    0.765554    -0.446928    4.601966    0.935051    3.451643    -4.352910    -0.596168    -0.404685    -19.546888    -1.390244    1.819359    17.681013    -4.185362    -52.387306    42.007278    -31.155607    -0.648510    -7.335333    -12.086848    23.562189    -6.224513    5.687851    5.183558    18.194672    -4.362204    46.582497    43.365917    30.208460    -3.298409    -14.265774    36.254753    -15.756451    -12.058304    -8.561648    1.411952    -14.079200    -3.840643    -1.726480    9.837480    -3.569926    -0.529012    -7.488478    -5.340635    -0.459400    -0.501160    0.509690    -4.171862    -9.215855    3.576219    3.841537    2.187372    3.028273    -0.895735    -4.169945    -12.006285    0.098744    -0.754353    -0.106910
-6.107441    81.966553    103.138947    -0.475877    -13.584289    -176.880859    -1.630504    -10.427340    0.794217    -0.471012    4.698151    0.962354    3.442659    -4.266254    -0.622069    -0.481545    -19.796507    -1.437431    1.786768    17.670349    -4.209953    -52.380810    41.794239    -30.911915    -0.614183    -7.233043    -11.884107    23.834110    -6.095220    5.725996    5.135838    18.128613    -4.306755    46.418777    43.346001    30.272444    -3.480241    -14.436716    37.577366    -15.770946    -12.114086    -8.662387    1.389218    -14.392480    -3.862849    -1.711106    9.808595    -3.461607    -0.546520    -7.388912    -5.407938    -0.442927    -0.453776    0.491372    -4.186985    -9.527820    3.545837    3.835614    2.155071    3.004756    -0.881338    -4.087440    -11.951365    0.096747    -0.721403    -0.104743
-6.096563    81.987213    103.241608    -0.474332    -13.842546    -176.887405    -1.636447    -10.216249    0.822864    -0.488334    4.807139    0.989764    3.435155    -4.172570    -0.651904    -0.560529    -20.001215    -1.489688    1.753245    17.659279    -4.236578    -52.370293    41.577629    -30.667398    -0.578876    -7.127309    -11.684706    24.114470    -5.962418    5.761684    5.088613    18.061626    -4.250023    46.231728    43.338921    30.361691    -3.664863    -14.605850    38.928284    -15.769752    -12.164731    -8.746187    1.371628    -14.716094    -3.879944    -1.695043    9.780532    -3.351409    -0.565358    -7.284118    -5.485837    -0.426528    -0.404374    0.473136    -4.195803    -9.848445    3.515023    3.827032    2.122452    2.978861    -0.865552    -4.001686    -11.893573    0.098646    -0.685499    -0.106793
